<svg xmlns="http://www.w3.org/2000/svg" viewBox="0 0 375 812" width="375" height="812">
  <!-- Phone Frame -->
  <rect x="0" y="0" width="375" height="812" fill="#1a1a1a"/>
  
  <!-- Status Bar -->
  <text x="187" y="30" text-anchor="middle" font-family="Arial" font-size="14" fill="#fff">9:41</text>
  
  <!-- FUTURE Badge -->
  <rect x="285" y="10" width="80" height="24" rx="4" fill="#FF9800"/>
  <text x="325" y="27" text-anchor="middle" font-family="Arial" font-size="10" font-weight="bold" fill="#fff">FUTURE</text>
  
  <!-- Header -->
  <text x="30" y="80" font-family="Arial" font-size="24" font-weight="bold" fill="#fff">Discover</text>
  
  <!-- Search Bar -->
  <rect x="20" y="100" width="335" height="50" rx="25" fill="rgba(255,255,255,0.1)"/>
  <text x="50" y="130" font-family="Arial" font-size="14" fill="#8A9A94">🔍 Search places, experiences...</text>
  
  <!-- Filter Pills -->
  <rect x="20" y="165" width="70" height="32" rx="16" fill="#E91E63"/>
  <text x="55" y="186" text-anchor="middle" font-family="Arial" font-size="12" fill="#fff">All</text>
  
  <rect x="100" y="165" width="80" height="32" rx="16" fill="rgba(255,255,255,0.1)"/>
  <text x="140" y="186" text-anchor="middle" font-family="Arial" font-size="12" fill="#8A9A94">☕ Coffee</text>
  
  <rect x="190" y="165" width="70" height="32" rx="16" fill="rgba(255,255,255,0.1)"/>
  <text x="225" y="186" text-anchor="middle" font-family="Arial" font-size="12" fill="#8A9A94">🍽️ Food</text>
  
  <rect x="270" y="165" width="85" height="32" rx="16" fill="rgba(255,255,255,0.1)"/>
  <text x="312" y="186" text-anchor="middle" font-family="Arial" font-size="12" fill="#8A9A94">🏛️ History</text>
  
  <!-- Section Header -->
  <text x="20" y="230" font-family="Arial" font-size="16" font-weight="600" fill="#fff">Trending Near You</text>
  <text x="320" y="230" font-family="Arial" font-size="14" fill="#E91E63">See all</text>
  
  <!-- Horizontal Cards -->
  <rect x="20" y="250" width="180" height="200" rx="16" fill="#3a5a7a"/>
  <rect x="20" y="250" width="180" height="120" rx="16" fill="#2a3a4a"/>
  <text x="110" y="320" text-anchor="middle" font-family="Arial" font-size="24">☕</text>
  <text x="35" y="395" font-family="Arial" font-size="14" font-weight="600" fill="#fff">Mandabatmaz</text>
  <text x="35" y="415" font-family="Arial" font-size="11" fill="#8A9A94">Traditional Coffee • İstanbul</text>
  <text x="35" y="435" font-family="Arial" font-size="11" fill="#FFD700">★★★★★ (4.9)</text>
  
  <rect x="210" y="250" width="180" height="200" rx="16" fill="#5a4a7a"/>
  <rect x="210" y="250" width="180" height="120" rx="16" fill="#3a2a5a"/>
  <text x="300" y="320" text-anchor="middle" font-family="Arial" font-size="24">🏛️</text>
  <text x="225" y="395" font-family="Arial" font-size="14" font-weight="600" fill="#fff">Hagia Sophia</text>
  <text x="225" y="415" font-family="Arial" font-size="11" fill="#8A9A94">Historical • İstanbul</text>
  <text x="225" y="435" font-family="Arial" font-size="11" fill="#FFD700">★★★★★ (4.9)</text>
  
  <!-- Section Header 2 -->
  <text x="20" y="490" font-family="Arial" font-size="16" font-weight="600" fill="#fff">Community Routes</text>
  <text x="320" y="490" font-family="Arial" font-size="14" fill="#E91E63">See all</text>
  
  <!-- Community Route Card -->
  <rect x="20" y="510" width="335" height="90" rx="12" fill="rgba(255,255,255,0.05)"/>
  <circle cx="60" cy="555" r="25" fill="#4a5a6a"/>
  <text x="60" y="560" text-anchor="middle" font-family="Arial" font-size="14" fill="#fff">👤</text>
  <text x="98" y="540" font-family="Arial" font-size="14" font-weight="600" fill="#fff">Coffee Lover's İstanbul</text>
  <text x="98" y="560" font-family="Arial" font-size="12" fill="#8A9A94">by @coffeelover • 8 stops</text>
  <text x="98" y="580" font-family="Arial" font-size="11" fill="#8A9A94">❤️ 234 • 🔄 45 uses</text>
  
  <rect x="20" y="610" width="335" height="85" rx="12" fill="rgba(255,255,255,0.05)"/>
  <circle cx="60" cy="652" r="25" fill="#5a6a4a"/>
  <text x="60" y="657" text-anchor="middle" font-family="Arial" font-size="14" fill="#fff">👤</text>
  <text x="98" y="637" font-family="Arial" font-size="14" font-weight="600" fill="#fff">Historical Ankara Tour</text>
  <text x="98" y="657" font-family="Arial" font-size="12" fill="#8A9A94">by @historybuff • 5 stops</text>
  <text x="98" y="677" font-family="Arial" font-size="11" fill="#8A9A94">❤️ 156 • 🔄 23 uses</text>
  
  <!-- ========== 3-TAB BOTTOM NAVIGATION ========== -->
  <!-- Floating pill container -->
  <rect x="30" y="720" width="315" height="70" rx="35" fill="rgba(30,30,30,0.95)"/>
  
  <!-- My Profile Tab (inactive) -->
  <g>
    <circle cx="90" cy="745" r="18" fill="transparent"/>
    <text x="90" y="742" text-anchor="middle" font-family="Arial" font-size="18" fill="#8A9A94">👤</text>
    <text x="90" y="770" text-anchor="middle" font-family="Arial" font-size="9" fill="#8A9A94">My Profile</text>
  </g>
  
  <!-- Search Tab (ACTIVE - blue pill) -->
  <g>
    <rect x="145" y="725" width="85" height="40" rx="20" fill="#007AFF"/>
    <text x="187" y="742" text-anchor="middle" font-family="Arial" font-size="18" fill="#fff">🔍</text>
    <text x="187" y="770" text-anchor="middle" font-family="Arial" font-size="9" font-weight="bold" fill="#007AFF">Search</text>
  </g>
  
  <!-- New Route Tab (inactive) -->
  <g>
    <circle cx="285" cy="745" r="18" fill="transparent"/>
    <text x="285" y="742" text-anchor="middle" font-family="Arial" font-size="18" fill="#8A9A94">🗺️</text>
    <text x="285" y="770" text-anchor="middle" font-family="Arial" font-size="9" fill="#8A9A94">New Route</text>
  </g>
  
  <!-- Screen Label -->
  <rect x="10" y="795" width="355" height="15" fill="transparent"/>
  <text x="187" y="806" text-anchor="middle" font-family="Arial" font-size="9" fill="#666">Screen 17: Discover [FUTURE]</text>
</svg>
