<svg xmlns="http://www.w3.org/2000/svg" viewBox="0 0 375 812" width="375" height="812">
  <!-- Phone Frame -->
  <rect x="0" y="0" width="375" height="812" fill="#1a1a1a"/>
  
  <!-- Status Bar -->
  <text x="187" y="30" text-anchor="middle" font-family="Arial" font-size="14" fill="#fff">9:41</text>
  
  <!-- FUTURE Badge -->
  <rect x="285" y="10" width="80" height="24" rx="4" fill="#FF9800"/>
  <text x="325" y="27" text-anchor="middle" font-family="Arial" font-size="10" font-weight="bold" fill="#fff">FUTURE</text>
  
  <!-- Header -->
  <text x="30" y="80" font-family="Arial" font-size="24" font-weight="bold" fill="#fff">My Routes</text>
  
  <!-- Filter Tabs -->
  <rect x="20" y="100" width="80" height="36" rx="18" fill="#E91E63"/>
  <text x="60" y="123" text-anchor="middle" font-family="Arial" font-size="13" fill="#fff">All</text>
  
  <rect x="108" y="100" width="90" height="36" rx="18" fill="rgba(255,255,255,0.1)"/>
  <text x="153" y="123" text-anchor="middle" font-family="Arial" font-size="13" fill="#8A9A94">Saved</text>
  
  <rect x="206" y="100" width="100" height="36" rx="18" fill="rgba(255,255,255,0.1)"/>
  <text x="256" y="123" text-anchor="middle" font-family="Arial" font-size="13" fill="#8A9A94">Completed</text>
  
  <!-- Route Card 1 - Active -->
  <rect x="20" y="160" width="335" height="130" rx="16" fill="rgba(233,30,99,0.15)" stroke="#E91E63" stroke-width="1"/>
  <rect x="20" y="160" width="100" height="130" rx="16" fill="#2a3a4a"/>
  <text x="70" y="235" text-anchor="middle" font-family="Arial" font-size="24">🗺️</text>
  
  <rect x="250" y="175" width="90" height="22" rx="11" fill="#4CAF50"/>
  <text x="295" y="190" text-anchor="middle" font-family="Arial" font-size="10" font-weight="bold" fill="#fff">IN PROGRESS</text>
  
  <text x="135" y="195" font-family="Arial" font-size="15" font-weight="600" fill="#fff">İstanbul Trip</text>
  <text x="135" y="215" font-family="Arial" font-size="12" fill="#8A9A94">Via Ankara, Konya</text>
  <text x="135" y="240" font-family="Arial" font-size="11" fill="#8A9A94">🛣️ 720 km • 🛑 3/5 stops</text>
  <text x="135" y="260" font-family="Arial" font-size="11" fill="#8A9A94">⏱️ Started 2 hours ago</text>
  
  <rect x="135" y="270" width="75" height="24" rx="12" fill="#E91E63"/>
  <text x="172" y="286" text-anchor="middle" font-family="Arial" font-size="10" fill="#fff">Continue</text>
  
  <!-- Route Card 2 - Saved -->
  <rect x="20" y="305" width="335" height="110" rx="16" fill="rgba(255,255,255,0.05)"/>
  <rect x="20" y="305" width="100" height="110" rx="16" fill="#3a4a5a"/>
  <text x="70" y="370" text-anchor="middle" font-family="Arial" font-size="24">☕</text>
  
  <rect x="280" y="320" width="60" height="22" rx="11" fill="#2196F3"/>
  <text x="310" y="335" text-anchor="middle" font-family="Arial" font-size="10" font-weight="bold" fill="#fff">SAVED</text>
  
  <text x="135" y="345" font-family="Arial" font-size="15" font-weight="600" fill="#fff">Coffee Culture Route</text>
  <text x="135" y="365" font-family="Arial" font-size="12" fill="#8A9A94">İzmir → Alaçatı</text>
  <text x="135" y="390" font-family="Arial" font-size="11" fill="#8A9A94">🛣️ 80 km • 🛑 6 stops</text>
  
  <!-- Route Card 3 - Completed -->
  <rect x="20" y="430" width="335" height="110" rx="16" fill="rgba(255,255,255,0.05)"/>
  <rect x="20" y="430" width="100" height="110" rx="16" fill="#4a5a3a"/>
  <text x="70" y="495" text-anchor="middle" font-family="Arial" font-size="24">✅</text>
  
  <rect x="250" y="445" width="90" height="22" rx="11" fill="#8A9A94"/>
  <text x="295" y="460" text-anchor="middle" font-family="Arial" font-size="10" font-weight="bold" fill="#fff">COMPLETED</text>
  
  <text x="135" y="470" font-family="Arial" font-size="15" font-weight="600" fill="#fff">Ankara Day Trip</text>
  <text x="135" y="490" font-family="Arial" font-size="12" fill="#8A9A94">Home → Ankara → Home</text>
  <text x="135" y="515" font-family="Arial" font-size="11" fill="#8A9A94">🛣️ 450 km • 📅 Nov 20</text>
  
  <!-- Route Card 4 - Saved -->
  <rect x="20" y="555" width="335" height="100" rx="16" fill="rgba(255,255,255,0.05)"/>
  <rect x="20" y="555" width="100" height="100" rx="16" fill="#5a4a5a"/>
  <text x="70" y="615" text-anchor="middle" font-family="Arial" font-size="24">🏛️</text>
  
  <rect x="280" y="570" width="60" height="22" rx="11" fill="#2196F3"/>
  <text x="310" y="585" text-anchor="middle" font-family="Arial" font-size="10" font-weight="bold" fill="#fff">SAVED</text>
  
  <text x="135" y="595" font-family="Arial" font-size="15" font-weight="600" fill="#fff">Historical İstanbul</text>
  <text x="135" y="615" font-family="Arial" font-size="12" fill="#8A9A94">Full day tour • 8 stops</text>
  <text x="135" y="640" font-family="Arial" font-size="11" fill="#8A9A94">🛣️ 25 km • ⏱️ 6 hours</text>
  
  <!-- Create Route FAB -->
  <circle cx="325" cy="670" r="24" fill="#E91E63"/>
  <text x="325" y="677" text-anchor="middle" font-family="Arial" font-size="22" fill="#fff">+</text>
  
  <!-- ========== 3-TAB BOTTOM NAVIGATION ========== -->
  <!-- Floating pill container -->
  <rect x="30" y="720" width="315" height="70" rx="35" fill="rgba(30,30,30,0.95)"/>
  
  <!-- My Profile Tab (inactive) -->
  <g>
    <circle cx="90" cy="745" r="18" fill="transparent"/>
    <text x="90" y="742" text-anchor="middle" font-family="Arial" font-size="18" fill="#8A9A94">👤</text>
    <text x="90" y="770" text-anchor="middle" font-family="Arial" font-size="9" fill="#8A9A94">My Profile</text>
  </g>
  
  <!-- Search Tab (inactive) -->
  <g>
    <circle cx="187" cy="745" r="18" fill="transparent"/>
    <text x="187" y="742" text-anchor="middle" font-family="Arial" font-size="18" fill="#8A9A94">🔍</text>
    <text x="187" y="770" text-anchor="middle" font-family="Arial" font-size="9" fill="#8A9A94">Search</text>
  </g>
  
  <!-- New Route Tab (ACTIVE - blue pill) -->
  <g>
    <rect x="245" y="725" width="85" height="40" rx="20" fill="#007AFF"/>
    <text x="287" y="742" text-anchor="middle" font-family="Arial" font-size="18" fill="#fff">🗺️</text>
    <text x="287" y="770" text-anchor="middle" font-family="Arial" font-size="9" font-weight="bold" fill="#007AFF">New Route</text>
  </g>
  
  <!-- Screen Label -->
  <rect x="10" y="795" width="355" height="15" fill="transparent"/>
  <text x="187" y="806" text-anchor="middle" font-family="Arial" font-size="9" fill="#666">Screen 18: My Routes [FUTURE]</text>
</svg>
